<?xml version="1.0"?>
<svg xmlns="http://www.w3.org/2000/svg" xmlns:xlink="http://www.w3.org/1999/xlink" version="1.1" viewBox="0 0 224 224" width="50px" height="50px"><g transform="translate(33.6,33.6) scale(0.7,0.7)"><g fill="none" fill-rule="nonzero" stroke="none" stroke-width="1" stroke-linecap="butt" stroke-linejoin="miter" stroke-miterlimit="10" stroke-dasharray="" stroke-dashoffset="0" font-family="none" font-weight="none" font-size="none" text-anchor="none" style="mix-blend-mode: normal"><path d="M0,224v-224h224v224z" fill="none"/><g fill="#9ba3af"><g id="surface1"><path d="M165.76,215.04c-0.7875,0 -1.5575,-0.21 -2.2575,-0.6125l-51.5025,-30.0475l-51.5025,30.0475c-1.3825,0.805 -3.0975,0.8225 -4.48,0.0175c-1.4,-0.805 -2.2575,-2.275 -2.2575,-3.885v-197.12c0,-2.4675 2.0125,-4.48 4.48,-4.48h107.52c2.485,0 4.48,2.0125 4.48,4.48v197.12c0,1.61 -0.8575,3.08 -2.2575,3.885c-0.6825,0.4025 -1.4525,0.595 -2.2225,0.595z"/></g></g></g></g></svg>
