<?xml version="1.0"?>
<svg xmlns="http://www.w3.org/2000/svg" xmlns:xlink="http://www.w3.org/1999/xlink" version="1.1" viewBox="0 0 224 224" width="50px" height="50px"><g fill="none" fill-rule="nonzero" stroke="none" stroke-width="1" stroke-linecap="butt" stroke-linejoin="miter" stroke-miterlimit="10" stroke-dasharray="" stroke-dashoffset="0" font-family="none" font-weight="none" font-size="none" text-anchor="none" style="mix-blend-mode: normal"><path d="M0,224v-224h224v224z" fill="none"/><g fill="#ffffff"><path d="M143.36,49.28h22.4c2.47296,0 4.48,-2.00704 4.48,-4.48v-30.18176c0,-2.34752 -1.80544,-4.3008 -4.144,-4.46656c-7.12768,-0.50624 -21.05152,-1.19168 -31.06432,-1.19168c-27.51168,0 -45.43168,16.4864 -45.43168,46.44864v29.71136h-31.36c-2.47296,0 -4.48,2.00704 -4.48,4.48v31.36c0,2.47296 2.00704,4.48 4.48,4.48h31.36v85.12c0,2.47296 2.00704,4.48 4.48,4.48h31.36c2.47296,0 4.48,-2.00704 4.48,-4.48v-85.12h32.35456c2.2848,0 4.20224,-1.71584 4.45312,-3.9872l3.48544,-31.36c0.29568,-2.65216 -1.78304,-4.9728 -4.45312,-4.9728h-35.84v-22.4c0,-7.42336 6.01664,-13.44 13.44,-13.44z"/></g></g></svg>
