<?xml version="1.0"?>
<svg xmlns="http://www.w3.org/2000/svg" xmlns:xlink="http://www.w3.org/1999/xlink" version="1.1" viewBox="0 0 224 224" width="100px" height="100px"><g fill="none" fill-rule="nonzero" stroke="none" stroke-width="1" stroke-linecap="butt" stroke-linejoin="miter" stroke-miterlimit="10" stroke-dasharray="" stroke-dashoffset="0" font-family="none" font-weight="none" font-size="none" text-anchor="none" style="mix-blend-mode: normal"><path d="M0,224v-224h224v224z" fill="none"/><g fill="#9fabbf"><path d="M112,4.7075c-0.9744,0 -1.94495,0.30905 -2.77375,0.93625l-103.04,80.42125c-1.9264,1.5232 -2.28445,4.33755 -0.76125,6.30875c1.5232,1.9264 4.33755,2.28445 6.30875,0.76125l6.18625,-4.83v117.775c0,2.464 2.016,4.48 4.48,4.48h62.72v-80.64h53.76v80.64h62.72c2.464,0 4.48,-2.016 4.48,-4.48v-117.775l6.18625,4.83c0.8512,0.6272 1.78815,0.945 2.77375,0.945c1.344,0 2.639,-0.58625 3.535,-1.70625c1.5232,-1.9712 1.16515,-4.78555 -0.76125,-6.30875l-103.04,-80.42125c-0.8288,-0.6272 -1.79935,-0.93625 -2.77375,-0.93625zM156.8,22.4v4.7075l26.88,20.965v-25.6725z"/></g><path d="M112,224c-61.85589,0 -112,-50.14411 -112,-112v0c0,-61.85589 50.14411,-112 112,-112v0c61.85589,0 112,50.14411 112,112v0c0,61.85589 -50.14411,112 -112,112z" fill="none"/><path d="M112,219.52c-59.38166,0 -107.52,-48.13834 -107.52,-107.52v0c0,-59.38166 48.13834,-107.52 107.52,-107.52h0c59.38166,0 107.52,48.13834 107.52,107.52v0c0,59.38166 -48.13834,107.52 -107.52,107.52z" fill="none"/></g></svg>
