<?xml version="1.0"?>
<svg xmlns="http://www.w3.org/2000/svg" xmlns:xlink="http://www.w3.org/1999/xlink" version="1.1" viewBox="0 0 224 224" width="100px" height="100px"><g fill="none" fill-rule="nonzero" stroke="none" stroke-width="1" stroke-linecap="butt" stroke-linejoin="miter" stroke-miterlimit="10" stroke-dasharray="" stroke-dashoffset="0" font-family="none" font-weight="none" font-size="none" text-anchor="none" style="mix-blend-mode: normal"><path d="M0,224v-224h224v224z" fill="none"/><g fill="#9fabbf"><g id="surface1"><path d="M8.68,12.46c-2.4675,0 -4.48,2.0125 -4.48,4.48v159.88c0,11.7075 3.4125,21.14 10.36,28c11.0425,10.92 26.845,11.2 28.42,11.2h142.38c0.245,0 1.785,0.035 3.92,-0.28c-13.9475,-1.7675 -34.16,-11.375 -34.16,-38.92v-159.88c0,-2.4675 -1.995,-4.48 -4.48,-4.48zM164.08,42.56v134.26c0,29.7675 28.735,30.24 29.96,30.24c2.415,-0.0175 22.4,-0.9275 25.48,-23.8c0.21,-1.9425 0.28,-3.9725 0.28,-6.16v-112.42c0,-0.0175 0,-0.1225 0,-0.14c-0.1575,-6.4925 -3.64,-17.885 -15.26,-21c-3.64,0.875 -6.6675,2.5025 -8.96,4.9c-5.9325,6.195 -5.74,15.7325 -5.74,15.82v108.78c0,2.485 -1.995,4.48 -4.48,4.48c-2.485,0 -4.48,-1.995 -4.48,-4.48v-108.64c-0.0175,-0.3325 -0.455,-12.8275 7.84,-21.84zM32.34,49.28h88.34c2.485,0 4.48,2.0125 4.48,4.48c0,2.4675 -1.995,4.48 -4.48,4.48h-88.34c-2.4675,0 -4.48,-2.0125 -4.48,-4.48c0,-2.4675 2.0125,-4.48 4.48,-4.48zM32.34,67.2h88.34c2.485,0 4.48,2.0125 4.48,4.48c0,2.4675 -1.995,4.48 -4.48,4.48h-88.34c-2.4675,0 -4.48,-2.0125 -4.48,-4.48c0,-2.4675 2.0125,-4.48 4.48,-4.48zM34.44,103.04h30.38c2.4675,0 4.48,2.0125 4.48,4.48c0,2.4675 -2.0125,4.48 -4.48,4.48h-30.38c-2.4675,0 -4.48,-2.0125 -4.48,-4.48c0,-2.4675 2.0125,-4.48 4.48,-4.48zM86.1,103.04h34.58c2.485,0 4.48,2.0125 4.48,4.48c0,2.4675 -1.995,4.48 -4.48,4.48h-34.58c-2.4675,0 -4.48,-2.0125 -4.48,-4.48c0,-2.4675 2.0125,-4.48 4.48,-4.48zM34.44,120.96h30.38c2.4675,0 4.48,1.995 4.48,4.48c0,2.485 -2.0125,4.48 -4.48,4.48h-30.38c-2.4675,0 -4.48,-1.995 -4.48,-4.48c0,-2.485 2.0125,-4.48 4.48,-4.48zM86.1,120.96h34.58c2.485,0 4.48,1.995 4.48,4.48c0,2.485 -1.995,4.48 -4.48,4.48h-34.58c-2.4675,0 -4.48,-1.995 -4.48,-4.48c0,-2.485 2.0125,-4.48 4.48,-4.48zM86.1,137.9h34.58c2.485,0 4.48,1.995 4.48,4.48c0,2.485 -1.995,4.48 -4.48,4.48h-34.58c-2.4675,0 -4.48,-1.995 -4.48,-4.48c0,-2.485 2.0125,-4.48 4.48,-4.48zM34.44,138.88h30.38c2.4675,0 4.48,1.995 4.48,4.48c0,2.485 -2.0125,4.48 -4.48,4.48h-30.38c-2.4675,0 -4.48,-1.995 -4.48,-4.48c0,-2.485 2.0125,-4.48 4.48,-4.48zM86.1,155.82h34.58c2.485,0 4.48,1.995 4.48,4.48c0,2.485 -1.995,4.48 -4.48,4.48h-34.58c-2.4675,0 -4.48,-1.995 -4.48,-4.48c0,-2.485 2.0125,-4.48 4.48,-4.48zM34.44,156.8h30.38c2.4675,0 4.48,1.995 4.48,4.48c0,2.485 -2.0125,4.48 -4.48,4.48h-30.38c-2.4675,0 -4.48,-1.995 -4.48,-4.48c0,-2.485 2.0125,-4.48 4.48,-4.48zM86.1,172.62h34.58c2.485,0 4.48,1.995 4.48,4.48c0,2.485 -1.995,4.48 -4.48,4.48h-34.58c-2.4675,0 -4.48,-1.995 -4.48,-4.48c0,-2.485 2.0125,-4.48 4.48,-4.48zM34.44,174.72h30.38c2.4675,0 4.48,1.995 4.48,4.48c0,2.485 -2.0125,4.48 -4.48,4.48h-30.38c-2.4675,0 -4.48,-1.995 -4.48,-4.48c0,-2.485 2.0125,-4.48 4.48,-4.48z"/></g></g></g></svg>
