<?xml version="1.0"?>
<svg xmlns="http://www.w3.org/2000/svg" xmlns:xlink="http://www.w3.org/1999/xlink" version="1.1" viewBox="0 0 224 224" width="100px" height="100px"><g fill="none" fill-rule="nonzero" stroke="none" stroke-width="1" stroke-linecap="butt" stroke-linejoin="miter" stroke-miterlimit="10" stroke-dasharray="" stroke-dashoffset="0" font-family="none" font-weight="none" font-size="none" text-anchor="none" style="mix-blend-mode: normal"><path d="M0,224v-224h224v224z" fill="none"/><g fill="#9fabbf"><g id="surface1"><path d="M179.2,0c-24.4825,0 -44.45,19.705 -44.8,44.1c0,0.2275 0,0.4725 0,0.7c0,16.52 8.9425,30.87 22.26,38.64c6.615,3.8675 14.3325,6.16 22.54,6.16c24.71,0 44.8,-20.09 44.8,-44.8c0,-24.71 -20.09,-44.8 -44.8,-44.8zM125.72,48.58l-45.78,22.96c10.6575,9.24 17.6575,22.54 18.48,37.52l46.34,-23.24c-10.815,-9.0825 -17.9725,-22.3125 -19.04,-37.24zM44.8,67.2c-24.71,0 -44.8,20.09 -44.8,44.8c0,24.71 20.09,44.8 44.8,44.8c9.1875,0 17.6575,-2.8 24.78,-7.56c12.0225,-8.0325 20.02,-21.6825 20.02,-37.24c0,-16.0825 -8.5575,-30.17 -21.28,-38.08c-6.86,-4.27 -14.875,-6.72 -23.52,-6.72zM98.42,114.94c-0.8225,14.9625 -7.7,28.4025 -18.34,37.66l45.64,22.82c1.0675,-14.9275 8.1025,-28.14 18.9,-37.24zM179.2,134.4c-9.24,0 -17.78,2.8875 -24.92,7.7c-11.9525,8.05 -19.88,21.6125 -19.88,37.1c0,0.07 0,0.07 0,0.14c-0.1925,0.0175 -0.3675,0.1225 -0.56,0.14l0.56,0.28c0.2975,24.4475 20.2825,44.24 44.8,44.24c24.71,0 44.8,-20.09 44.8,-44.8c0,-24.71 -20.09,-44.8 -44.8,-44.8z"/></g></g></g></svg>
