<?xml version="1.0"?>
<svg xmlns="http://www.w3.org/2000/svg" xmlns:xlink="http://www.w3.org/1999/xlink" version="1.1" viewBox="0 0 224 224" width="50px" height="50px"><g fill="none" fill-rule="nonzero" stroke="none" stroke-width="1" stroke-linecap="butt" stroke-linejoin="miter" stroke-miterlimit="10" stroke-dasharray="" stroke-dashoffset="0" font-family="none" font-weight="none" font-size="none" text-anchor="none" style="mix-blend-mode: normal"><path d="M0,224v-224h224v224z" fill="none"/><g fill="#9ba3af"><path d="M94.08,8.96c-7.37164,0 -13.44,6.06836 -13.44,13.44v8.96h-44.8c-1.61565,-0.02285 -3.11844,0.826 -3.93294,2.22151c-0.81449,1.39551 -0.81449,3.12147 0,4.51698c0.81449,1.39551 2.31729,2.24436 3.93294,2.22151h4.48v161.28c0,7.40992 6.03008,13.44 13.44,13.44h116.48c7.40992,0 13.44,-6.03008 13.44,-13.44v-161.28h4.48c1.61565,0.02285 3.11844,-0.826 3.93294,-2.22151c0.81449,-1.39551 0.81449,-3.12147 0,-4.51698c-0.81449,-1.39551 -2.31729,-2.24436 -3.93294,-2.22151h-44.8v-8.96c0,-7.37164 -6.06836,-13.44 -13.44,-13.44zM94.08,17.92h35.84c2.48436,0 4.48,1.99564 4.48,4.48v8.96h-44.8v-8.96c0,-2.48436 1.99564,-4.48 4.48,-4.48zM85.12,62.72c2.47296,0 4.48,2.00704 4.48,4.48v112c0,2.47744 -2.00704,4.48 -4.48,4.48c-2.47296,0 -4.48,-2.00256 -4.48,-4.48v-112c0,-2.47296 2.00704,-4.48 4.48,-4.48zM112,62.72c2.47296,0 4.48,2.00704 4.48,4.48v112c0,2.47744 -2.00704,4.48 -4.48,4.48c-2.47296,0 -4.48,-2.00256 -4.48,-4.48v-112c0,-2.47296 2.00704,-4.48 4.48,-4.48zM138.88,62.72c2.47744,0 4.48,2.00704 4.48,4.48v112c0,2.47744 -2.00256,4.48 -4.48,4.48c-2.47744,0 -4.48,-2.00256 -4.48,-4.48v-112c0,-2.47296 2.00256,-4.48 4.48,-4.48z"/></g></g></svg>
