<?xml version="1.0"?>
<svg xmlns="http://www.w3.org/2000/svg" xmlns:xlink="http://www.w3.org/1999/xlink" version="1.1" viewBox="0 0 224 224" width="50px" height="50px"><g fill="none" fill-rule="nonzero" stroke="none" stroke-width="1" stroke-linecap="butt" stroke-linejoin="miter" stroke-miterlimit="10" stroke-dasharray="" stroke-dashoffset="0" font-family="none" font-weight="none" font-size="none" text-anchor="none" style="mix-blend-mode: normal"><path d="M0,224v-224h224v224z" fill="none"/><g fill="#707a8a"><g id="surface1"><path d="M22.4,22.4c-7.3675,0 -13.44,6.0725 -13.44,13.44v13.44h206.08v-13.44c0,-7.3675 -6.0725,-13.44 -13.44,-13.44zM31.36,35.84c2.4675,0 4.48,2.0125 4.48,4.48c0,2.4675 -2.0125,4.48 -4.48,4.48c-2.4675,0 -4.48,-2.0125 -4.48,-4.48c0,-2.4675 2.0125,-4.48 4.48,-4.48zM44.8,35.84c2.4675,0 4.48,2.0125 4.48,4.48c0,2.4675 -2.0125,4.48 -4.48,4.48c-2.4675,0 -4.48,-2.0125 -4.48,-4.48c0,-2.4675 2.0125,-4.48 4.48,-4.48zM8.96,58.24v62.72h206.08v-62.72zM8.96,129.92v58.24c0,7.3675 6.0725,13.44 13.44,13.44h85.12v-71.68zM116.48,129.92v71.68h85.12c7.3675,0 13.44,-6.0725 13.44,-13.44v-58.24zM26.88,138.88h67.2v8.96h-67.2zM26.88,156.8h67.2v8.96h-67.2zM26.88,174.72h40.32v8.96h-40.32z"/></g></g></g></svg>
